/* XPM */
static char *_e79f3fd24cb483df7f905dace5d660ezHU6k3JPlkdREKeq[] = {
/* columns rows colors chars-per-pixel */
"52 50 216 2 ",
"   c #D95400",
".  c #DB5C01",
"X  c #DC6203",
"o  c #DF6C01",
"O  c #DE7C03",
"+  c #DE7D09",
"@  c #DA7604",
"#  c #E06C09",
"$  c #E67402",
"%  c #E37D02",
"&  c #E67B08",
"*  c #E37E10",
"=  c #DF810B",
"-  c #E38401",
";  c #E58C02",
":  c #EB8A02",
">  c #E1850C",
",  c #EB8C0A",
"<  c #E48B0D",
"1  c #F18E00",
"2  c #EB9500",
"3  c #ED9B00",
"4  c #E6910F",
"5  c #F29402",
"6  c #F29A05",
"7  c #F29C0B",
"8  c #F19708",
"9  c #E78D1B",
"0  c #E88D1B",
"q  c #E58E13",
"w  c #E69314",
"e  c #E89415",
"r  c #EF9A13",
"t  c #E7901F",
"y  c #E9931C",
"u  c #EB9B1B",
"i  c #F39D1C",
"p  c #EEA004",
"a  c #EEA40C",
"s  c #F4A10D",
"d  c #F1B20E",
"f  c #EEAC15",
"g  c #ECA41E",
"h  c #EFAC1C",
"j  c #F3A313",
"k  c #F4A71A",
"l  c #F3AB1B",
"z  c #F0AB12",
"x  c #EFB016",
"c  c #EFB41F",
"v  c #F1B615",
"b  c #F2B51B",
"n  c #F3BC1E",
"m  c #F2BB14",
"M  c #E99321",
"N  c #EA9A23",
"B  c #EA9E2D",
"V  c #E79323",
"C  c #EDA421",
"Z  c #EDAC24",
"A  c #EDAE2C",
"S  c #EDA72A",
"D  c #F4AC22",
"F  c #F3AC2B",
"G  c #EDB027",
"H  c #F4B323",
"J  c #F2BB22",
"K  c #F8B927",
"L  c #F5B42B",
"P  c #F6BB2B",
"I  c #F9BB2A",
"U  c #ECA433",
"Y  c #EDAA39",
"T  c #F3AA37",
"R  c #EFB839",
"E  c #F4B333",
"W  c #F6BB33",
"Q  c #F9BE33",
"!  c #F5BE3A",
"~  c #FABF38",
"^  c #F3C11E",
"/  c #F3C224",
"(  c #F4C42B",
")  c #F9C12C",
"_  c #F5CB2B",
"`  c #F7D324",
"'  c #F6D12E",
"]  c #F5C432",
"[  c #F8C435",
"{  c #F5CB33",
"}  c #F5C33B",
"|  c #FAC33B",
" . c #F5CB3B",
".. c #F8CC3D",
"X. c #F6D033",
"o. c #F8D632",
"O. c #F8DB36",
"+. c #F6D23B",
"@. c #F9DC3C",
"#. c #F7D837",
"$. c #F9E13D",
"%. c #F4AF48",
"&. c #EFB84A",
"*. c #F3BB44",
"=. c #F2BE4D",
"-. c #F6BF68",
";. c #F5C343",
":. c #FAC441",
">. c #F9CA41",
",. c #F4CA4C",
"<. c #F8CD4C",
"1. c #F5C745",
"2. c #F9D444",
"3. c #FADC44",
"4. c #F9D44C",
"5. c #F7DA4A",
"6. c #F9DC4B",
"7. c #F6D944",
"8. c #F4C552",
"9. c #FAC752",
"0. c #F5CD54",
"q. c #F4C55F",
"w. c #F9CD5D",
"e. c #F6C957",
"r. c #FAD653",
"t. c #F9DB54",
"y. c #F6D15B",
"u. c #FAD65A",
"i. c #FAD95B",
"p. c #F6D257",
"a. c #FAE244",
"s. c #F9E34C",
"d. c #FBE94E",
"f. c #FAE453",
"g. c #FBEA56",
"h. c #FBEC5C",
"j. c #F8E258",
"k. c #F6C662",
"l. c #F4CB62",
"z. c #F6C36C",
"x. c #FACE65",
"c. c #F6D364",
"v. c #FADC63",
"b. c #F6D469",
"n. c #FBDE6A",
"m. c #F7CA72",
"M. c #F6DA71",
"N. c #F9D57B",
"B. c #F8D777",
"V. c #FAE164",
"C. c #FBEC63",
"Z. c #FBE26D",
"A. c #FBED6A",
"S. c #FDF464",
"D. c #FCF26B",
"F. c #FDFA69",
"G. c #FBE273",
"H. c #FCEA74",
"J. c #FBE47B",
"K. c #FCEA7C",
"L. c #F7E073",
"P. c #FCF373",
"I. c #FDF47A",
"U. c #FDF97A",
"Y. c #F8D983",
"T. c #F9D995",
"R. c #F7D79A",
"E. c #FBE683",
"W. c #FCEC83",
"Q. c #FCE98C",
"!. c #F8E389",
"~. c #FCF284",
"^. c #FDF48C",
"/. c #FBEC94",
"(. c #FCEF9B",
"). c #FBE692",
"_. c #FDF692",
"`. c #FDF996",
"'. c #FCF49C",
"]. c #FEFC99",
"[. c #F9DDAA",
"{. c #F9DAA0",
"}. c #FAE3A6",
"|. c #FAEDA3",
" X c #FAE4AB",
".X c #FAEEAB",
"XX c #FCF4A4",
"oX c #FDF8A3",
"OX c #FCF4AC",
"+X c #FCFAAC",
"@X c #FBEBBC",
"#X c #FAE4B6",
"$X c #FCF4B3",
"%X c #FDF9B2",
"&X c #FDFAB4",
"*X c #FDFDBA",
"=X c #FCFBBB",
"-X c #FBF6BA",
";X c #FAEBCB",
":X c #FBEBC4",
">X c #FBF6C4",
",X c #FCFCC3",
"<X c #FDFCCB",
"1X c #FCF4CD",
"2X c #FAEFD8",
"3X c #FCFCD5",
"4X c #FAF2DC",
"5X c #FCFCDA",
"6X c #FBF3D2",
"7X c #FBF4E4",
"8X c #FDFCE4",
"9X c #FBF7E8",
"0X c #FDFDEB",
"qX c #FDFDF4",
"wX c white",
"eX c #FFFFFF",
/* pixels */
"wXwXwXwXwXwXwXwXwXwXwXwXwXwXwXwXwXwXwXwX0X5X<X-X&X%X%X-X,X<X5XqXeXeXeXeXeXeXeXeXeXeXeXeXwXwXwXwXwXwXwXwX",
"wXwXwXwXwXwXwXwXwXwXwXwXwXwXwXwXwX5X<X%X^.^.^.^.^.^.^.^.^.^.^._.oX=X5XeXeXeXeXeXeXeXeXeXwXwXwXwXwXwXwXwX",
"wXwXwXwXwXwXwXwXwXwXwXwXwXwX8X-X*X+X&X&X_._._._._._._._._._._._.^.^.^.oX>XeXeXeXeXeXeXeXwXwXwXwXwXwXwXwX",
"wXwXwXwXwXwXwXwXwXwXwXwX0X%X_.^.+X*X*X*X'._.].].].].].].`.`.`._._._.`.^.^.`.=XeXeXeXeXeXwXwXwXwXwXwXwXwX",
"wXwXwXwXwXwXwXwXwXwXwX,X_.^._._.oX*X=X,X+X^.E.M.b.l.l.b.M.J.^.'.`.`.`._._._.^.`.3XeXwXwXwXwXwXwXwXwXwXwX",
"wXwXwXwXwXwXwXwXwX0XoX^.`._._.^.].*X|.B.=.A C u y w 9 w y u B %.q.!.`.`._._._._.^.&XwXwXwXwXwXwXwXwXwXwX",
"wXwXwXwXwXwXwXwX5X_.^._._._.].`.L.8.E H L P ( ( ( / ^ / J n c f f C R M.`.`._._.`.^.'.qXwXwXwXwXwXwXwXwX",
"wXwXwXwXwXwXwX3X^._.`._._.`.J.*.G ]  .2.3.3.@.$.O.O.' ( / J n J J J J f ;.W.`._._.`._.`.8XwXwXwXwXwXwXwX",
"wXwXwXwXwXwX3X^._.`._._.`.8.C G >.7.s.s.g.h.h.h.h.f.s.7.+.{ ( P J J J J b / H.`._._._._.`.0XwXwXwXwXwXwX",
"wXwXwXwXwX5X^._._.^.`.^.Y e A >.a.d.C.D.D.P.I.I.A.h.g.a.@.+.{ { ] / J J J J J C.`._._.`._.`.wXwXwXwXwXwX",
"wXwXwXwXqX`.^.^.^.`.E.B 9 S ] 3.g.D.P.P.~.+X=X=X+XD.s.a.@.X.{ ( _ _ _ / L J n J C.^._.^._.^.XXwXwXwXwXwX",
"wXwXwXwXXXW.^.^.^.E.B 9 M J O.f.C.D.P.I.&X,X,X,X,X&XK.$.#.' ( ( ( ( ( / / J J n / P.~.^.^.Q.~.,XwXwXwXwX",
"wXwXwX<XK.^.W.^.~.U 9 V g ' 6.f.h.C.F.I.,X,X<X<X8X5X3XW.` _ _ ( / / / / / / J J c  .U.~.^.W.^.~.8XwXeXeX",
"wXwXwXW.W.W.W.^.&.9 V g / 7.3.a.s.g.C.D.`.=X=X3X5X,X=X5Xc.^ ( ^ / / / / n / ^ n J c j.~.W.~.W.K.XXwXeXeX",
"wXwX-XH.W.K.W.c.t V u / +.X.+.@.a.a.d.h.h.S.^.3X=X,X-X,X>X( ^ / / ^ n / ^ ^ ^ ^ J n ( P.K.K.K.W.K.5XeXeX",
"wXwXE.K.K.K.K.U 9 V G X.{ { { ' o.O.$.$.$.$.-X,X&X&X%XOX<XJ.m / n / n n ^ n / n n J v j.U.J.K.K.G.'.eXeX",
"wX<XZ.J.K.K.e.9 V g / { _ _ _ _ _ ` ' o.` V.<XXXXXXXXXXXXX>X] n J / n n n ^ n ^ n n n ] P.P.J.H.K.G.9XwX",
"wX/.Z.G.G.G.U 0 M J / / / ( / / ^ n m m m OXXX(.|.'.|.'.(.%XB.d n v n n J n n J ^ J J n C.I.G.G.G.Z.$XwX",
"qXG.Z.Z.G.c.M V g J J J J n x n J } ,.y.N.=X/././././././././.y.0.,.] K m v n J J J J v 5.U.Z.L.G.Z.Q.wX",
"1XV.Z.Z.H.*.w M n J J J c } b.Q.|.OX$X$XOX/.Q.Q.Q.Q.Q.Q.Q.Q.Q._.|.OXOX|.!.c.P n J J J H { U.H.n.Z.Z.L.qX",
".Xi.Z.n.Z.U t N J J J n p././.Q.!.W.J.J.J.E.Q.E.E.E.E.E.E.E.E.E.E.J.E.Q.(.XX/. .n n J c ( P.P.n.v.n.v.6X",
").i.v.v.v.N 9 C J J J J J.J.G.J.J.J.J.J.J.J.J.J.J.J.J.J.J.J.J.J.J.J.J.J.L.L.J.R n J J c J A.U.v.v.v.i.-X",
"J.i.v.v.p.M t h n J J c ,.G.L.L.L.L.L.L.G.G.G.M.G.G.G.G.M.G.G.G.G.G.G.M.L.K.0.G J J J J J C.I.V.i.v.i.|.",
"w.<.y.v.0.t t G J J J n n 0.Z.n.n.n.Z.n.n.n.n.n.n.n.n.n.Z.n.n.n.n.n.n.n.Z.y.G n J n J J n C.U.V.y.u.:.Y.",
"e.! *.<.;.t M K J J J J J J 1.v.v.v.v.v.i.v.v.v.v.v.v.v.v.v.v.v.v.v.i.v.p.G J J J J J J J C.U.i.1.;.W N.",
"9.W ! | F X * b J J J J J n G *.u.i.u.u.i.u.u.u.u.u.i.i.u.u.r.i.i.i.i.0.Z J J J J J J J b h.F.>.W | P N.",
"9.P ! ! A . . 2 p a x n J J / J E <.r.r.r.r.r.r.r.r.r.r.r.r.r.r.r.p.*.Z J J J J c f a 3 7 h.S...W ! L N.",
"k.H W W L X X 2 3 2 3 3 3 a f x x E 4.4.4.4.4.4.4.4.4.4.4.4.4.4.4.} g b f f a 3 3 3 3 2 f S.C.| E W H T.",
"m.H L L E # . 2 3 3 3 3 3 2 3 2 3 x ) W ] [ ] [  .[ [ [ [ [ [ I ) Z 2 3 2 2 3 3 3 3 3 2 / F.h.W L L H [.",
"T.l L L L *   : 3 3 3 3 3 3 3 3 3 H I J I K K K K K K K K K K K P H ; 3 3 3 3 3 3 3 3 2 2.S.f.L L L D ;X",
":Xl F D H y   % 3 3 3 3 3 3 3 3 3 K I I I I I I K K I I I I I I P K < 3 3 3 3 3 3 3 3 a h.S.2.l D D E qX",
"qXE l D D k . o 3 3 3 3 3 3 3 3 a P K I I I P K K I I I K I I I K P 4 2 3 3 3 3 3 3 2 ] S.S.W k H k k.wX",
"wXk.j l l l * . 2 6 3 3 3 3 6 3 s P I K P I J ) K u h ) P K P I I I w 2 3 3 3 3 3 3 3 g.S.f.g k D s R.wX",
"wX#X7 k j l r . % 3 3 3 3 3 3 2 z I K K I I K u & O O w L ) J I K I w 2 3 3 3 3 3 2 { S.S.] j k j D 9XwX",
"wXwXE 7 j r j & X 3 3 3 3 3 3 3 z I ) K D w + @ ; 3 3 = O e H K ) J = 2 3 3 3 3 3 f C.S.f.j j j 6 z.wXwX",
"wXwXR.5 j 7 7 7 X % 3 3 3 3 3 3 3 w w = @ O ; 3 p 3 3 p 2 - + < y > @ 3 3 3 3 3 3 5.S.C.H 7 7 7 7 2XwXwX",
"wXwXwXT 6 7 7 s , . 2 3 3 3 3 3 3 - O - 2 3 3 3 3 3 3 3 3 3 3 ; - % 2 3 3 3 3 2 +.S.S. .2 7 7 5 z.wXwXwX",
"wXwXwX#X5 6 6 6 6 & o 3 3 3 3 3 3 3 3 p 3 3 3 3 3 3 3 3 3 3 3 3 p 3 3 3 3 3 2  .S.S.5.6 6 8 5 k 7XwXwXwX",
"wXwXwXwXz.1 8 5 5 6 $ % p 3 3 3 3 3 3 3 3 3 3 3 3 3 3 3 3 3 3 3 3 3 3 3 3 2  .S.S.t.8 5 6 8 1 [.wXwXwXwX",
"wXwXwXwXwXU 1 5 5 5 6 $ % 6 3 3 3 3 3 3 3 3 3 3 3 3 3 3 3 3 3 3 3 3 3 2 a 7.S.S.s.8 1 5 5 1 -.wXwXwXwXwX",
"eXeXeXeXeX2Xi 1 5 5 5 5 - - 6 3 6 3 3 3 3 3 3 3 3 3 3 3 3 3 3 3 3 2 2 J g.S.S...5 5 5 5 1 %.eXeXwXwXwXwX",
"eXeXeXeXeXeX;Xr 1 5 5 5 5 1 , 3 2 3 3 3 6 3 3 3 3 3 3 3 3 3 3 2 3 h 5.S.F.h.I 5 5 5 5 1 T eXeXeXwXwXwXwX",
"eXeXeXeXeXeXwX;Xi 5 8 5 2 6 7 l b a 2 5 2 2 3 3 3 2 3 2 2 2 s J 6.S.F.h...s 1 5 5 6 1 %.qXeXeXeXwXwXwXwX",
"eXeXeXeXeXeXwXwX4XT 5 8 7 8 6 7 l ]  .) J f a a a a f H  .6.S.F.F.g...l 5 6 7 7 6 5 -.wXeXeXeXeXwXwXwXwX",
"eXeXeXeXwXwXwXwXwXwXm.s s k j j 7 s D ~ 2.f.g.h.h.S.S.S.S.h.f.>.K k 7 j j k j 7 j R.eXeXeXeXeXeXwXwXwXwX",
"eXeXeXeXwXwXwXwXwXwXwX#X*.l H I L L K D D H L Q | | [ [ Q I D D H L L L L l H w.4XeXeXeXeXeXeXeXwXwXwXwX",
"eXeXeXeXwXwXwXwXwXwXwXwXwX}.9.I ~ ~ | | | | | | ~ | ~ | | | ....:.:.~ I W x.@XeXeXeXeXeXeXeXeXeXwXwXwXwX",
"eXeXeXeXwXwXwXwXwXwXwXwXwXwXwX#Xx.| I I ~ | | :.| | >.:.:.| | Q I I :.N.:XeXeXeXeXeXeXeXeXeXeXeXwXwXwXwX",
"eXeXeXeXeXeXeXeXeXeXeXeXeXeXeXeXeX4X[.B.9.*.Q I I I I I I Q *.w.Y.#X9XwXwXwXwXwXwXwXwXwXwXwXwXwXwXwXwXwX",
"eXeXeXeXeXeXeXeXeXeXeXeXeXeXeXeXeXeXeXeXeX4X1X#X X}.}.#X:X6X7XeXwXwXwXwXwXwXwXwXwXwXwXwXwXwXwXwXwXwXwXwX"
};
