/* XPM */
static char *a27fac527053495ca2c481571412bc646dCWC22Q2SNPk4C0[] = {
/* columns rows colors chars-per-pixel */
"64 64 159 2 ",
"   c white",
".  c #FEFEFE",
"X  c #E2E2E2",
"o  c #D2D2D2",
"O  c LightGray",
"+  c #FDFDFD",
"@  c #848484",
"#  c gray23",
"$  c #3F3F3F",
"%  c #3E3F3F",
"&  c #403F3F",
"*  c #433F3F",
"=  c #423F3F",
"-  c #413F3F",
";  c gray49",
":  c gray19",
">  c #313131",
",  c gray9",
"<  c #101111",
"1  c #561111",
"2  c #BF1111",
"3  c #C01111",
"4  c #C21111",
"5  c #C51111",
"6  c #B01111",
"7  c #251111",
"8  c #111111",
"9  c #161111",
"0  c #8B1111",
"q  c #C61111",
"w  c #C31111",
"e  c #881111",
"r  c #861111",
"t  c #891111",
"y  c #AE1111",
"u  c #2D1111",
"i  c #121111",
"p  c #C11111",
"a  c #C41111",
"s  c #581111",
"d  c #7E7E7E",
"f  c gray3",
"g  c black",
"h  c #660000",
"j  c #FD0000",
"k  c #CC0000",
"l  c #AF0000",
"z  c #9B0000",
"x  c #130000",
"c  c #040000",
"v  c #780000",
"b  c #B10000",
"n  c #BC0000",
"m  c #F50000",
"M  c red",
"N  c #AD0000",
"B  c #050000",
"V  c #AA0000",
"C  c #F40000",
"Z  c #B80000",
"A  c #760000",
"S  c #060000",
"D  c #AE0000",
"F  c #E40000",
"G  c #290000",
"H  c #FE0000",
"J  c #E30000",
"K  c #B00000",
"L  c #460000",
"P  c #650000",
"I  c #FA0000",
"U  c #6F0000",
"Y  c #180000",
"T  c #150000",
"R  c #020000",
"E  c #030000",
"W  c #2D0000",
"Q  c #E20000",
"!  c #1A0000",
"~  c #140000",
"^  c #DF0000",
"/  c #210000",
"(  c #070000",
")  c #AC0000",
"_  c #E10000",
"`  c #010000",
"'  c #D40000",
"]  c #FC0000",
"[  c #ED0000",
"{  c #D30000",
"}  c #DE0000",
"|  c #1C0000",
" . c #A90000",
".. c #830000",
"X. c #740000",
"o. c #0F0000",
"O. c #270000",
"+. c #D50000",
"@. c #880000",
"#. c #850000",
"$. c #1B0000",
"%. c #1D0000",
"&. c #750000",
"*. c #1E0000",
"=. c #190000",
"-. c #250000",
";. c #470000",
":. c #E50000",
">. c #AB0000",
",. c #A80000",
"<. c #3D0000",
"1. c #090909",
"2. c #FB0000",
"3. c #EC0000",
"4. c #CA0000",
"5. c #9C0000",
"6. c #E60000",
"7. c #F80000",
"8. c #9A0000",
"9. c gray20",
"0. c #252525",
"q. c gray13",
"w. c #472222",
"e. c #822222",
"r. c #832222",
"t. c #842222",
"y. c #792222",
"u. c #2C2121",
"i. c #232121",
"p. c #642222",
"a. c #852222",
"s. c #632222",
"d. c #622222",
"f. c #782222",
"g. c #302121",
"h. c #772222",
"j. c #222121",
"k. c gray21",
"l. c #353636",
"z. c #323636",
"x. c #333636",
"c. c #353535",
"v. c #343434",
"b. c #3A3A3A",
"n. c gray33",
"m. c #585858",
"M. c #2F2F2F",
"N. c gray30",
"B. c gray85",
"V. c #EFEFEF",
"C. c #505050",
"Z. c gray91",
"A. c #E7E7E7",
"S. c #EAEAEA",
"D. c gray28",
"F. c #B2B2B2",
"G. c gray76",
"H. c gray25",
"J. c #434343",
/* pixels */
"                                                                                                                                ",
"                                                                                                                                ",
"        . X o O O O O O O O O O O O O O O O O O O O O O O O O O O O O O O O O O O O O O O O O O O O O O O O O O O o X .         ",
"        + @ # $ $ % & * * * * * $ $ $ $ $ = * * * * = $ % - * * * * - % $ = * * $ $ $ $ % - * * * * * * * & % $ $ # @ +         ",
"        + ; : > , < 1 2 3 4 5 6 7 8 8 8 9 0 q w 3 4 e 9 8 r 4 3 w q t 8 9 e 4 y u 8 8 8 i t q w 3 3 p a a s < , > : ; +         ",
"        + d > : f g h j j k l z x g g g c v b n m M N B g V M C Z b A g S D M F G g g g g A b Z C H J K l L g f : > d +         ",
"        + d > : f g P I I U Y T R g g g g E c W Q H b ! ~ l H ^ / c E g ( ) M _ G g g g g E c / ^ H V S c ` g f : > d +         ",
"        + d > : f g P I I _ ' n Y g g g g g g G _ ] [ ' { [ ] } | g g g ( ) M _ G g g g g g g | } M  .` g g g f : > d +         ",
"        + d > : f g P I I b ..X.o.g g g g g g O._ j +.@.#.' j } $.g g g ( ) M _ G g g g g g g %.} M  .R g g g f : > d +         ",
"        + d > : f g P I I &./ *.E g g g ` =.-.;.:.H >.c g ,.H Q <.-.=.g ( ) M _ G g g g g g g %.} M  .` g g g f : > d +         ",
"        + d > : 1.g P I 2.3.F 4.! g g g S 5.:.6.7.H ) ( `  .H 7.:.6.8.` ( ) M Q G g g g g g g %.^ M  .R g g g 1.: > d +         ",
"        + d > 9.0.q.w.e.e.r.t.y.u.q.q.q.i.p.a.r.e.r.s.i.q.d.r.e.r.a.s.q.i.s.r.f.g.q.q.q.q.q.q.u.h.r.d.j.q.q.q.0.9.> d +         ",
"        + d > k.k.k.l.z.z.z.z.z.k.k.k.k.k.x.z.z.z.z.x.k.k.x.z.z.z.z.x.k.k.x.z.z.k.k.k.k.k.k.k.k.z.z.x.k.k.k.k.k.k.> d +         ",
"        + d > k.k.k.k.k.k.k.k.k.k.k.k.k.k.k.k.k.k.k.k.k.k.k.k.k.k.k.k.k.k.k.k.k.k.k.k.k.k.k.k.k.k.k.k.k.k.k.k.k.k.> d +         ",
"        + d > k.k.k.k.k.k.k.k.k.k.k.k.k.k.k.k.k.k.k.k.k.k.k.k.k.k.k.k.k.k.k.k.k.k.k.k.k.k.k.k.k.k.k.k.k.k.k.k.k.k.> d +         ",
"        + d > k.k.k.k.k.k.k.k.k.k.k.k.k.k.k.k.k.k.k.k.k.k.k.k.k.k.k.k.k.k.k.k.k.k.k.k.k.k.k.k.k.k.k.k.k.k.k.k.k.k.> d +         ",
"        + d > k.k.k.k.k.k.k.k.k.k.k.k.k.k.k.k.k.k.k.k.k.k.k.k.k.k.k.k.k.k.k.k.k.k.k.k.k.k.k.k.k.k.k.k.k.k.k.k.k.k.> d +         ",
"        + d > k.k.k.k.k.k.k.k.k.k.k.k.k.k.k.k.k.k.k.k.k.k.k.k.k.k.k.k.k.k.k.k.k.k.k.k.k.k.k.k.k.k.k.k.k.k.k.k.k.k.> d +         ",
"        + d > c.v.9.9.9.9.9.9.9.9.9.9.9.9.9.9.9.9.9.9.9.9.9.9.9.9.9.9.9.9.9.9.9.9.9.9.9.9.9.9.9.9.9.9.9.9.9.9.v.c.> d +         ",
"        + d : b.n.m.m.m.m.m.m.m.m.m.m.m.m.m.m.m.m.m.m.m.m.m.m.m.m.m.m.m.m.m.m.m.m.m.m.m.m.m.m.m.m.m.m.m.m.m.m.n.b.: d +         ",
"        + d M.N.B.V.V.V.V.V.V.V.V.V.V.V.V.V.V.V.V.V.V.V.V.V.V.V.V.V.V.V.V.V.V.V.V.V.V.V.V.V.V.V.V.V.V.V.V.V.V.B.N.M.d +         ",
"        + d M.C.Z.                                                                                            Z.C.M.d +         ",
"        + d M.C.A.                                                                                            A.C.M.d +         ",
"        + d M.C.A.                                                                                            A.C.M.d +         ",
"        + d M.C.A.                                                                                            A.C.M.d +         ",
"        + d M.C.A.                                                                                            A.C.M.d +         ",
"        + d M.C.A.                                                                                            A.C.M.d +         ",
"        + d M.C.A.                                                                                            A.C.M.d +         ",
"        + d M.C.A.                                                                                            A.C.M.d +         ",
"        + d M.C.A.                                                                                            A.C.M.d +         ",
"        + d M.C.A.                                                                                            A.C.M.d +         ",
"        + d M.C.A.                                                                                            A.C.M.d +         ",
"        + d M.C.A.                                                                                            A.C.M.d +         ",
"        + d M.C.A.                                                                                            A.C.M.d +         ",
"        + d M.C.A.                                                                                            A.C.M.d +         ",
"        + d M.C.A.                                                                                            A.C.M.d +         ",
"        + d M.C.A.                                                                                            A.C.M.d +         ",
"        + d M.C.A.                                                                                            A.C.M.d +         ",
"        + d M.C.A.                                                                                            A.C.M.d +         ",
"        + d M.C.A.                                                                                            A.C.M.d +         ",
"        + d M.C.A.                                                                                            A.C.M.d +         ",
"        + d M.C.A.                                                                                            A.C.M.d +         ",
"        + d M.C.A.                                                                                            A.C.M.d +         ",
"        + d M.C.A.                                                                                            A.C.M.d +         ",
"        + d M.C.A.                                                                                            A.C.M.d +         ",
"        + d M.C.A.                                                                                            A.C.M.d +         ",
"        + d M.C.A.                                                                                            A.C.M.d +         ",
"        + d M.C.A.                                                                                            A.C.M.d +         ",
"        + d M.C.A.                                                                                            A.C.M.d +         ",
"        + d M.C.A.                                                                                            A.C.M.d +         ",
"        + d M.C.A.                                                                                            A.C.M.d +         ",
"        + d M.C.A.                                                                                            A.C.M.d +         ",
"        + d M.C.A.                                                                                            A.C.M.d +         ",
"        + d M.C.A.                                                                                            A.C.M.d +         ",
"        + d M.C.A.                                                                                            A.C.M.d +         ",
"        + d M.C.A.                                                                                            A.C.M.d +         ",
"        + d M.C.A.                                                                                            A.C.M.d +         ",
"        + d M.C.A.                                                                                            A.C.M.d +         ",
"        + d M.C.S.                                                                                            S.C.M.d +         ",
"        + ; M.D.F.G.G.G.G.G.G.G.G.G.G.G.G.G.G.G.G.G.G.G.G.G.G.G.G.G.G.G.G.G.G.G.G.G.G.G.G.G.G.G.G.G.G.G.G.G.G.F.D.M.; +         ",
"        + @ # H.J.J.J.J.J.J.J.J.J.J.J.J.J.J.J.J.J.J.J.J.J.J.J.J.J.J.J.J.J.J.J.J.J.J.J.J.J.J.J.J.J.J.J.J.J.J.J.J.H.# @ +         ",
"        . X o O O O O O O O O O O O O O O O O O O O O O O O O O O O O O O O O O O O O O O O O O O O O O O O O O O o X .         ",
"                                                                                                                                ",
"                                                                                                                                "
};
