/* XPM */
static char *_a8aaebcd8044960f7bd1fa8811b96aelcWOyrpFxXSMUvav[] = {
/* columns rows colors chars-per-pixel */
"32 32 185 2 ",
"   c None",
".  c #DC6303",
"X  c #DF6E01",
"o  c #DD6709",
"O  c #DF6D0B",
"+  c #E06D06",
"@  c #E47501",
"#  c #E57B02",
"$  c #E57F12",
"%  c #DF8004",
"&  c #E38501",
"*  c #E58B00",
"=  c #E38C0C",
"-  c #EC8D0B",
";  c #EA8B05",
":  c #F08C00",
">  c #E79100",
",  c #EB9400",
"<  c #ED9B00",
"1  c #E69009",
"2  c #E89309",
"3  c #EB9C0B",
"4  c #F19403",
"5  c #F19804",
"6  c #F29A0A",
"7  c #E68916",
"8  c #E88E16",
"9  c #E78919",
"0  c #E88F1A",
"q  c #E89415",
"w  c #E8951A",
"e  c #EB9B1B",
"r  c #EEA000",
"t  c #EEA30A",
"y  c #F3A20C",
"u  c #F2B70D",
"i  c #EDA513",
"p  c #EEAD13",
"a  c #ECA31D",
"s  c #EEAD1A",
"d  c #F3A414",
"f  c #F1AC15",
"g  c #F2A519",
"h  c #F4AC1B",
"j  c #F1B316",
"k  c #F1B816",
"l  c #F0B51B",
"z  c #F2BB1E",
"x  c #E89323",
"c  c #EA9F22",
"v  c #EA9D2D",
"b  c #ECA124",
"n  c #EEAB21",
"m  c #ECA428",
"M  c #EEAC2A",
"N  c #F1A220",
"B  c #F3AD22",
"V  c #EFB425",
"C  c #F4B425",
"Z  c #F8B726",
"A  c #F2BC23",
"S  c #F8B927",
"D  c #F5B52C",
"F  c #F8B62A",
"G  c #F6BC2B",
"H  c #F9BB2B",
"J  c #EDAD35",
"K  c #ECAD3D",
"L  c #F4AF34",
"P  c #F3AD3C",
"I  c #EFB23B",
"U  c #F4B633",
"Y  c #F3BD33",
"T  c #F9BD32",
"R  c #F3C11A",
"E  c #F7D01D",
"W  c #F3C224",
"Q  c #F5CC27",
"!  c #F3C32A",
"~  c #FAC02C",
"^  c #F5CB2D",
"/  c #F6D32C",
"(  c #F4C731",
")  c #FAC033",
"_  c #F5CC33",
"`  c #F5C43A",
"'  c #F9C23A",
"]  c #F6CD3C",
"[  c #F7D536",
"{  c #F6D33B",
"}  c #F8D43E",
"|  c #F8DA3E",
" . c #F9E13E",
".. c #F2AA40",
"X. c #EEB642",
"o. c #F4BF44",
"O. c #F3B149",
"+. c #F3BC4E",
"@. c #F4B75E",
"#. c #F6C342",
"$. c #F7C947",
"%. c #F9CF41",
"&. c #F7C54A",
"*. c #FAC64B",
"=. c #F5CB4D",
"-. c #F7D241",
";. c #F8D645",
":. c #F7D940",
">. c #F7D749",
",. c #F9D34C",
"<. c #F6D84F",
"1. c #F9DD4D",
"2. c #F6C357",
"3. c #F4CD56",
"4. c #F8C759",
"5. c #F5CB5B",
"6. c #F5D152",
"7. c #F9D557",
"8. c #F6D953",
"9. c #FAD758",
"0. c #F9DA5C",
"q. c #F9E445",
"w. c #F7E04E",
"e. c #F9E24C",
"r. c #FBEA4C",
"t. c #FAE452",
"y. c #FBEC56",
"u. c #F9E45C",
"i. c #FCEC5B",
"p. c #F7CB62",
"a. c #F7DC62",
"s. c #FADC64",
"d. c #F7DC6C",
"f. c #FADD6B",
"g. c #F8CF7A",
"h. c #FAD377",
"j. c #F6D971",
"k. c #FAD378",
"l. c #F7DE7B",
"z. c #F9DE7E",
"x. c #FBEF61",
"c. c #FAE16D",
"v. c #FBEE68",
"b. c #FCF565",
"n. c #FDF26E",
"m. c #FDFA6A",
"M. c #FBE271",
"N. c #FBEC74",
"B. c #FBE57D",
"V. c #FBEB7B",
"C. c #FCF375",
"Z. c #FCF37D",
"A. c #F9D483",
"S. c #FADE9C",
"D. c #FAE581",
"F. c #FAEB85",
"G. c #FBEA8C",
"H. c #FCF385",
"J. c #FCF48B",
"K. c #F9E591",
"L. c #FBEB93",
"P. c #FBEC99",
"I. c #FCF592",
"U. c #FDF994",
"Y. c #FCF69B",
"T. c #FDFA99",
"R. c #FEFC9B",
"E. c #FADFA4",
"W. c #FBEEA4",
"Q. c #FCF6A2",
"!. c #FCF3A4",
"~. c #FCF8A5",
"^. c #FCF7AA",
"/. c #FAF2AD",
"(. c #FDFBAC",
"). c #FCF9B5",
"_. c #FDFEB2",
"`. c #FAF4B9",
"'. c #FCF9B9",
"]. c #FCFCBB",
"[. c #FCF2C2",
"{. c #FFFFC3",
"}. c #FDFDCA",
"|. c #FBFCCA",
" X c #FCFDD1",
/* pixels */
"                          ).~.Q.Q.(.'.                          ",
"                        J.J.I.I.U.J.J.J.I.                      ",
"                Y.H.(.{._.U.G.F.F.G.Y.R.T.I.H.~.                ",
"              H.I.T.^.K.p.I M b b m J +.j.I.T.J.J.              ",
"          Q.J.U.T.d.I G ! _ ^ / W z l p s Y d.T.I.H.            ",
"        Y.J.T.J.X.M } y.i.i.i.t.e.{ ( ! A l k 8.U.Y.J.          ",
"        H.T.D.v a :.i.n.Z.T.~.C.q.| [ ( ( ! A k <.U.I.H.        ",
"      H.J.F.v 8 ^ t.n.n.(.}.}.}.V./ ^ W ! W W A k u.J.J.H.      ",
"    F.F.J.K 7 V :.e.r.x.U.]. X X Xa.R ! W W W W z G N.H.F.L.    ",
"    M.H.5.9 n _ { {  .e.r.N.|.).'.'.! R W z z R A k >.Z.B.N.    ",
"  D.N.V.v w ! ^ ^ ^ Q / E G.).!.!.'.j.u z z R A R z W C.B.N.L.  ",
"  f.N.5.9 n A A l l A ! =./.P.P.P.P.L.` G z k k A A l u.N.c.M.  ",
"W.s.M.I w C A A =.B.K.P.!.K.G.G.G.G.G.K.P.K.l.=.A A l >.C.c.s.`.",
"D.0.f.v e A l ,.L.D.D.B.B.B.D.D.B.B.B.B.B.D.G.K.Y z l ] Z.s.0.P.",
"d.0.0.x a A z ` c.j.M.M.c.M.f.f.M.f.f.M.M.f.M.3.V A l ( Z.s.9.A.",
"&.$.*.x V A A l ` a.s.a.s.s.s.s.d.s.s.s.s.f.6.V z A z _ C.9.#.7.",
"o.Y U o 3 z z A z Y 7.9.9.9.9.9.9.9.9.9.0.=.V A A A p G b.` U 5.",
"o.U U . # < < t p p V ,.,.6.,.,.,.,.,.,.#.s f p t < > G b.Y D p.",
"2.B D O # r , 5 , , y ~ H G G ! ~ G H ~ s > < < < < , -.i.L l g.",
"A.h C 7 X r < < < < h G S S Z S S S S H C 1 < < < < < i.<.B h E.",
"  d B e . < < < < < h G S H ~ C D ~ D S S 2 < < < , C m.G d B   ",
"  L y d + & r < < < C ~ S C q & = a S ~ G 1 < < < < t.i.g y +.  ",
"    5 d - X < < < < i e 7 % * < < * = a q * < < , ` m.S 6 5     ",
"    g 5 y # & r , < > & * < < < < < , * * , < > s m.:.6 5 P     ",
"      : 5 4 @ , < < < < r < < < < < < 5 5 < > f b.t.6 4 4       ",
"      @.: 6 : # , < < < < < < < < < < < , , ! m.t.6 4 :         ",
"        ..: 5 4 ; 3 4 , , < < < < < > , s e.m.] , 4 :           ",
"          O.: 5 4 d l l p 3 < < t f ! e.b.t.h 4 4 4             ",
"              y y d h F ' -.;.1.t.u.u.-.C d d y d               ",
"                4.S Z F T T ' ' T T T H H S F                   ",
"                      *.) ) ~ T ) ) T ' *.                      ",
"                          S.A.h.h.A.E.                          "
};
