/* XPM */
static char *_c6924a37e814268b5516f347b00cae0LfhJ1LCDMCRd7qON[] = {
/* columns rows colors chars-per-pixel */
"64 64 141 2 ",
"   c None",
".  c #4C5A71",
"X  c #4D5B72",
"o  c #4E5C72",
"O  c #4F5D73",
"+  c #505E73",
"@  c #505E74",
"#  c #515E74",
"$  c #515F75",
"%  c #525F75",
"&  c #536076",
"*  c #536176",
"=  c #546177",
"-  c #556378",
";  c #566479",
":  c #576479",
">  c #59667B",
",  c #5A677C",
"<  c #5C697D",
"1  c #5D6A7E",
"2  c #5E6B7F",
"3  c #606D81",
"4  c #616E82",
"5  c #626F83",
"6  c #636F83",
"7  c #647084",
"8  c #647184",
"9  c #657184",
"0  c #667285",
"q  c #677386",
"w  c #687487",
"e  c #697488",
"r  c #6A7588",
"t  c #6B778A",
"y  c #6C788A",
"u  c #6D788B",
"i  c #6E798C",
"p  c #6E7A8C",
"a  c #6F7A8C",
"s  c #6F7B8D",
"d  c #707B8D",
"f  c #707B8E",
"g  c #717C8E",
"h  c #727D8F",
"j  c #788293",
"k  c #7C8697",
"l  c #67A293",
"z  c #65A495",
"x  c #66A495",
"c  c #66A595",
"v  c #67A596",
"b  c #67A797",
"n  c #68A797",
"m  c #6CA697",
"M  c #6AAC9B",
"N  c #6BAC9C",
"B  c #70A89A",
"V  c #74AA9C",
"C  c #77AC9F",
"Z  c #78AC9F",
"A  c #7EAEA1",
"S  c #70B7A5",
"D  c #72BBA9",
"F  c #73BEAB",
"G  c #74BEAB",
"H  c #74BEAC",
"J  c #74BFAC",
"K  c #75BFAD",
"L  c #77C0AD",
"P  c #75C1AE",
"I  c #76C1AE",
"U  c #75C2AE",
"Y  c #75C2AF",
"T  c #76C2AF",
"R  c #7DC1AF",
"E  c #78C3B0",
"W  c #828C9C",
"Q  c #838D9D",
"!  c #8892A0",
"~  c #86B4A9",
"^  c #88BAAE",
"/  c #AEB9AC",
"(  c #A0A7B3",
")  c #B6BEB3",
"_  c #BEBDB1",
"`  c #BFBDB1",
"'  c #81C7B5",
"]  c #83C7B6",
"[  c #83C8B7",
"{  c #8BC8B6",
"}  c #86C9B9",
"|  c #87C9B9",
" . c #8ACABA",
".. c #9CC7BC",
"X. c #C2C1B7",
"o. c #C3C1B7",
"O. c #93CFC0",
"+. c #ABD1C0",
"@. c #A8D3C3",
"#. c #A5D7CA",
"$. c #CCD7C8",
"%. c #DBDBCD",
"&. c #D9DECF",
"*. c #DCDCCD",
"=. c #C9DED9",
"-. c #CADED9",
";. c #CCE2DD",
":. c #DCE1D4",
">. c #E0E0D1",
",. c #E1E0D1",
"<. c #E4E4D7",
"1. c #CFEAE3",
"2. c #D0EAE3",
"3. c #E2EDEA",
"4. c #EAEBEE",
"5. c #EBECEF",
"6. c #EBEDEF",
"7. c #E8F1EF",
"8. c #EEEFF1",
"9. c #EEEFF2",
"0. c #E6F3F0",
"q. c #E6F4F0",
"w. c #EAF2F0",
"e. c #EAF5F2",
"r. c #EBF6F3",
"t. c #ECF4F2",
"y. c #EDF4F2",
"u. c #EEF4F2",
"i. c #ECF7F4",
"p. c #EEF8F5",
"a. c #EFF8F5",
"s. c #EFF8F6",
"d. c #F5F6F5",
"f. c #F7F7F5",
"g. c #F4F5F7",
"h. c #F1F8F6",
"j. c #F7F7F8",
"k. c #FAFBF9",
"l. c #FBFBF9",
"z. c #FCFBFA",
"x. c white",
/* pixels */
"                                                    T T T T T T T T T T T T                                                     ",
"                                            T T T T T T T T T T T T T T T T T T T T                                             ",
"                                        T T T T T T T T T T T T T T T T T T T T T T T T                                         ",
"                                  T T T T T T T T T T T T T T T T T T T T T T T T T T T T T T                                   ",
"                                T T T T T T T T T T T T T T T T T T T T T T T T T T T T T T T T                                 ",
"                            T T T T T T T T T T T T T T T T T T T T T T T T T T T T T T T T T T T T                             ",
"                          T T T T T T T T T T T T T T T T T T T T T T T T T T T T T T T T T T T T T T                           ",
"                      T T T T T T T T T T T T T T T T T T T T T T T T T T T T T T T T T T T T T T T T T T                       ",
"                    T T T T T T T T T T T T T T T T T T T T T T T T T T T T T T T T T T T T T T T T T T T T                     ",
"                  T T T T T T T T T T T T T T T T T T T T T T T T T T T T T T T T T T T T T T T T T T T T T T                   ",
"                T T T T T T T T U U T T U T U T U U T U T U T T T T T T T U T T U T U U U U T T T T T T T T T T                 ",
"              T T T T T T T E [ } } }  .} { } } } } } } } } } } } } } } } } } } } { } } } } } } [ T T T T T T T T               ",
"              T T T T T T O.2.s.s.i.s.i.i.s.i.s.i.i.i.h.i.i.g.s.i.i.i.i.h.s.s.s.i.s.i.i.h.s.s.s.r.2.O.T T T T T T               ",
"            T T T T T T  .s.x.x.x.x.x.x.x.x.x.x.x.x.x.x.x.x.x.x.x.x.x.x.x.x.x.x.x.x.x.x.x.x.x.x.x.x.i.O.T T T T T T             ",
"          T T T T T T E 1.x.x.g.4.4.4.4.4.4.4.4.4.4.5.6.u.8.8.8.8.u.8.8.8.8.8.8.6.u.8.8.8.8.8.8.j.x.x.1.E T T T T T T           ",
"          T T T T T T [ r.x.g.! 6 8 8 8 8 8 8 8 8 8 q k Q W W W W Q W Q W Q Q Q Q Q Q Q W Q Q W ( j.x.r.[ T T T T T T           ",
"        T T T T T T U } s.x.4.6 . o o o o o o o o o . , d h h h d h d h d h d h d h d h h h h u W 8.x.s.} T T T T T T T         ",
"      T T T T T T T U } i.x.4.8 o o o @ @ o o @ @ o @ @ 0 h h h h h h h h h h h h h h h h h h d W 8.x.s.} U T T T T T T T       ",
"      T T T T T T T U { s.x.4.8 o o + o @ o @ o o @ o @ : s h h h h h h h h h h h h h h h h h h W u.x.s.{ T T T T T T T T       ",
"      T T T T T T T U } i.x.4.8 o + o @ o @ o @ @ o @ o o 6 h h h h h h h h h h h h h h h h h d W 6.x.s.} U T T T T T T T       ",
"    T T T T T T T T U } s.x.4.8 o o @ o @ o @ o o @ o @ o - u h h h h h h h h h h h h h h h h h Q 8.x.i.} T T T T T T T T T     ",
"    T T T T T T T T U } i.x.4.8 o @ o @ o @ o @ @ o @ o @ o 2 h h h h h h h h h h h h h h h h d Q 8.x.s.} T T T T T T T T T     ",
"  T T T T T T T T T T } s.x.4.8 o @ @ o @ o @ o o @ o @ o @ & r h h h h h h h h h h h h h h h h Q 8.x.s.} U T T T T T T T T T   ",
"  T T T T T T T T T T  .i.x.4.8 o o o @ o @ o @ @ o @ o @ o o , h h h h h h h h h h h h h h h d Q 8.x.s.} T T T T T T T T T T   ",
"  T T T T T T T T T T } i.x.4.8 o o @ o @ o @ o @ o @ o @ o @ @ 8 h h h h h h h h h h h h h h h W 8.x.i.} U T T T T T T T T T   ",
"  T T T T T T T T T T } s.x.4.8 o @ o @ o @ o @ o @ o @ o @ o @ : u h h h h h h h h h h h h h s Q 8.x.s.} T T T T T T T T T T   ",
"T T T T T T T T T T T } i.x.4.8 o o @ o @ o @ o @ o @ o @ o @ o o 6 h h h h h h h h h h h h h h Q u.x.i.{ U T T T T T T T T T T ",
"T T T T T T T T T T T } s.x.4.8 o @ o @ o @ o @ o @ o @ o @ o @ + & y h h h h h h h h h h h h h W 8.x.s.} U T T T T T T T T T T ",
"T T T T T T T T T T U } s.x.4.8 o @ @ o @ o @ o @ o @ o @ o @ o @ o 2 h h h h h h h h h h h h s Q 8.x.i.} T T T T T T T T T T T ",
"T T T T T T T T T T U { i.x.4.8 o o o @ o @ o @ o @ o @ o @ o @ o + @ w h h h h h h h h h h h h Q 8.x.g.} T T T T T T T T T T T ",
"T T T T T T T T T T T } s.x.4.8 o o @ o @ o @ o @ o @ o @ o @ o @ o + > s h h h h h h h h h h h W 8.x.s.} T T T T T T T T T T T ",
"T T T T T T T T T T U } i.x.4.8 o @ o @ o @ o @ o @ o @ o @ o @ o @ o + 8 h h h h h h h h h h h W 8.x.i.} T T T T T T T T T T T ",
"T T T T T T T T T T U } i.x.4.8 o O O O O O O O O O O O O O O O @ o @ o : u h h h h h h h h h h W 8.x.i.} T T T T T T T T T T T ",
"T T T T T T T T T T U } s.x.4.8 o O O O O O O O O O O O O O O O o @ o @ o 6 h h h h h h h h h d Q 8.x.g.} T T T T T T T T T T T ",
"T T T T T T T T T T T } i.x.4.8 o O O O O O O O O O O O O O O O @ o @ o O & r h h h h h h h h h W 8.x.s. .T T T T T T T T T T T ",
"T T T T T T T T T T T } s.x.4.8 o O O O O O O O O O O O O O O O o @ o @ O O < h h h h h h h h d W 8.x.s.} T T T T T T T T T T T ",
"T T T T T T T T T T U } s.x.4.8 o O O O O O O O O O O O o O O O O O O o O O @ r h h h h h h h h W u.x.i. .T T T T T T T T T T T ",
"T T T T T T T T T T U { s.x.4.6 . o o o o o o o o o o o o o o o o o o o o o . : s d d h d h d h W 8.x.i.} T T T T T T T T T T T ",
"  T T T T T T T T T U [ r.x.g.! 6 8 8 8 8 8 8 8 8 8 8 8 8 8 8 8 8 8 8 8 8 8 8 0 j W Q W W W W W ( j.x.r.' T T T T T T T T T T   ",
"  T T T T T T T T T T T ;.x.x.g.4.4.4.4.4.4.4.4.4.4.4.4.4.4.4.4.4.4.4.4.4.4.4.4.8.8.8.8.8.u.8.8.j.x.x.;.H T T T T T T T T T T   ",
"  T T T T T T T T T T D ^ 7.x.x.x.x.x.x.x.x.x.x.x.x.x.x.x.x.x.x.x.x.x.x.x.x.x.x.x.x.x.x.x.x.x.x.x.x.w.^ D T T T T T T T T T T   ",
"  T T T T T T T T T T T M ~ =.w.u.r.w.u.t.t.t.t.t.w.t.f.f.f.f.f.f.f.f.f.f.u.w.r.u.w.t.t.r.w.w.t.7.=.~ M T T T T T T T T T T T   ",
"    T T T T T T T T T T D c l B C C C C C C C C C C A ) X.X.X.X.X.X.X.X.) A C C C C C C C C C A C l c D E T T T T T T T T T     ",
"    T T T T T T T T T T T D N m x x x x x x x c x c m / ` ` ` ` ` ` ` ` / m c c x x x c c z z c c M D T T T T T T T T T T T     ",
"      T T T T T T T T T T T T T D J H D H H H H D J R $.*.%.%.%.%.%.%.%.$.R D G H H D H H H J D D T T T T T T T T T T T T       ",
"      T T T T T T T T T T T T T T T E T T T T T T T { &.>.>.>.>.>.:.>.>.&.{ T T T T T T T E T T E E T T T T T T T T T T T       ",
"      T T T T T T T T T T T T T T T T T T T T T T T +.>.>.>.>.>.>.>.>.>.,.+.T T T T T T T T T T T T T T T T T T T T T T T       ",
"        T T T T T T T T T T T T T T T T T ' } }  .@.:.<.<.<.<.<.<.<.<.<.<.:.@. .} } ' T T T T T T T T T T T T T T T T T         ",
"          T T T T T T T T T T T T T T T #.0.s.s.h.l.l.l.l.l.l.l.l.l.l.l.l.z.l.i.s.s.q.#.T T T T T T T T T T T T T T T           ",
"          T T T T T T T T T T T T T T ' q.x.x.x.x.x.x.x.x.x.x.x.x.x.x.x.x.x.x.x.x.x.x.q.' T T T T T T T T T T T T T T           ",
"            T T T T T T T T T T T T T ' 0.x.x.x.x.x.x.x.x.x.x.x.x.x.x.x.x.x.x.x.x.x.x.0.' T T T T T T T T T T T T T             ",
"              T T T T T T T T T T T T H ..3.t.t.t.w.u.r.t.t.w.u.t.t.w.u.w.u.0.0.w.r.3...J T T T T T T T T T T T T               ",
"              T T T T T T T T T T T T H M B Z C C C C C C C C C C C C C A A B A C Z B m H E T T T T T T T T T T T               ",
"                T T T T T T T T T T T T S c x c x c x x x x x x c x x x x z z z c x c S T T T T T T T T T T T T                 ",
"                  T T T T T T T T T T T T H G H H H H H H H H H H H H H J J J J J J U E T T T T T T T T T T T                   ",
"                    T T T T T T T T T T T T T T T T T T T T T T T T T T Y E K E J U E U T T T T T T T T T T                     ",
"                      T T T T T T T T T T T T T T T T T T T T T T T T T T T T T T T T T T T T T T T T T T                       ",
"                          T T T T T T T T T T T T T T T T T T T T T T T T T T T T T T T T T T T T T T                           ",
"                            T T T T T T T T T T T T T T T T T T T T T T T T T T T T T T T T T T T T                             ",
"                                T T T T T T T T T T T T T T T T T T T T T T T T T T T T T T T T                                 ",
"                                  T T T T T T T T T T T T T T T T T T T T T T T T T T T T T T                                   ",
"                                        T T T T T T T T T T T T T T T T T T T T T T T T                                         ",
"                                            T T T T T T T T T T T T T T T T T T T T                                             ",
"                                                    T T T T T T T T T T T T                                                     "
};
