/* XPM */
static char *_359594f06a041c8cae17b84127d51172DKeejQ1eOwWonZx[] = {
/* columns rows colors chars-per-pixel */
"64 64 144 2 ",
"   c None",
".  c #010000",
"X  c #0C0105",
"o  c #070807",
"O  c #0B0B0B",
"+  c #110207",
"@  c #130208",
"#  c #1E030C",
"$  c #14090D",
"%  c #160F12",
"&  c #1B0A10",
"*  c #141414",
"=  c #1A1517",
"-  c #191919",
";  c #24040E",
":  c #260410",
">  c #2C0512",
",  c #2C0C17",
"<  c #2D0E19",
"1  c #330615",
"2  c #380516",
"3  c #3A0718",
"4  c #27151B",
"5  c #252525",
"6  c #2C2C2C",
"7  c #3D222B",
"8  c #322C2E",
"9  c #333434",
"0  c #373939",
"q  c #3C3C3C",
"w  c #44061B",
"e  c #49071D",
"r  c #44081C",
"t  c #4B091F",
"y  c #470C20",
"u  c #520A23",
"i  c #5F0C28",
"p  c #431726",
"a  c #610C28",
"s  c #6D0D2E",
"d  c #700D2F",
"f  c #6C102F",
"g  c #740E31",
"h  c #7A0F34",
"j  c #7E1035",
"k  c #7F193C",
"l  c #4E2332",
"z  c #522A38",
"x  c #5B2A3B",
"c  c #433C3E",
"v  c #692039",
"b  c #632C3F",
"n  c #73243F",
"m  c #4F3840",
"M  c #533640",
"N  c #602F40",
"B  c #772A44",
"V  c #7C2A46",
"C  c #763C4F",
"Z  c #3F4140",
"A  c #464646",
"S  c #4C4748",
"D  c #4A4A4A",
"F  c #545454",
"G  c #5A5154",
"H  c #5C5C5C",
"J  c #624B53",
"K  c #704554",
"L  c #734857",
"P  c #704C59",
"I  c #646464",
"U  c #6A6A6A",
"Y  c #736167",
"T  c #7E626C",
"R  c #737373",
"E  c #7B7778",
"W  c #7E7E7E",
"Q  c #860F38",
"!  c #821037",
"~  c #851138",
"^  c #8A113A",
"/  c #95133F",
"(  c #971340",
")  c #9A1341",
"_  c #911841",
"`  c #9A1D47",
"'  c #A51546",
"]  c #A11947",
"[  c #AC1549",
"{  c #A71849",
"}  c #B2164B",
"|  c #BB174F",
" . c #B6194E",
".. c #BE1750",
"X. c #BF1851",
"o. c #8C2145",
"O. c #C31853",
"+. c #CB1A56",
"@. c #D51B5A",
"#. c #DB1C5D",
"$. c #E01C5F",
"%. c #E51D61",
"&. c #E91D62",
"*. c #F01E66",
"=. c #8C7B81",
"-. c #838383",
";. c #8D8588",
":. c #8B8B8B",
">. c #949293",
",. c #9C9B9B",
"<. c #A29FA0",
"1. c #A3A3A3",
"2. c #A9A2A5",
"3. c #ABABAB",
"4. c #B2B3B3",
"5. c #B7B8B8",
"6. c #BBBABA",
"7. c #BCB9BA",
"8. c gray74",
"9. c #BBBBBB",
"0. c #C1C1C1",
"q. c #C3C3C3",
"w. c #C5C5C5",
"e. c #C6C6C6",
"r. c #C2C2C2",
"t. c #C8C8C8",
"y. c gray80",
"u. c #CECECE",
"i. c gray81",
"p. c #C9C9C9",
"a. c #CFD0D0",
"s. c gray82",
"d. c LightGray",
"f. c gray83",
"g. c #D5D5D5",
"h. c gray84",
"j. c #D2D2D2",
"k. c gainsboro",
"l. c #DFDFDF",
"z. c #DCDCDC",
"x. c #E0DFDF",
"c. c #E4E4E4",
"v. c gray90",
"b. c #E2E2E2",
/* pixels */
"                                                                                                                                ",
"                                                                                                                                ",
"                                                            e.,.1.5.                                                            ",
"                                                            U . . A                                                             ",
"                                                            R . . A                                                             ",
"                                                      f.t.f.U : ; m q.f.f.                                                      ",
"                                                    x.q * * ~ @.@.] = - 5 u.                                                    ",
"                                                      6 . . ! *.*.' . . O e.                                                    ",
"                                                    l.8 X . ~ *.&.} X X * 8.                                                    ",
"                                              8.A q c ` } } +.&.&.#.} [ { z q q 2.                                              ",
"                                              3.. . X O.*.&.&.&.&.&.&.&.#.: . . -.                                              ",
"                                              5.o . + O.&.&.&.&.&.&.&.&.#.> . . W                                               ",
"                                              3.o . + X.&.&.&.&.&.&.&.&.#.> . . :.                                              ",
"                                              4.. . + X.&.&.&.&.&.&.&.&.#.> . . -.                                              ",
"                                              5.. . X X.&.&.&.&.&.&.&.&.@.> . . W                                               ",
"                                        e.3.4.=.y r u +.&.&.&.$.&.&.&.&.#.a r t T 3.3.w.                                        ",
"                                        U o . y $.$.&.&.&.&.&.&.&.&.&.&.&.$.&.&.s o . A                                         ",
"                                        U . . 3 &.&.&.&.&.&.&.&.&.&.$.&.&.&.&.&.s . . q                                         ",
"                                        I . . r $.&.&.$.&.&.&.&.&.&.&.&.&.&.&.&.s . . q                                         ",
"                                        U . . r $.&.&.&.&.$.&.&.&.&.&.&.&.&.&.&.s . . q                                         ",
"                                        U . . r &.&.&.&.&.&.&.&.&.&.&.&.&.&.&.&.s . . q                                         ",
"                                        I . . r $.$.&.&.&.&.&.&.$.&.&.&.&.&.&.&.s . . q                                         ",
"W D A D D A D D A D D A D D A D D S D D V ' '  .&.&.&.&.&.&.&.&.&.&.&.&.&.&.&.&.O.' ' o.S D D D A D D A D D A D D A D D A D D H ",
"A . . . . . . . . . . . . . . . . . . . Q *.&.&.&.&.&.&.&.$.&.&.&.$.&.&.&.&.&.&.&.&.*.} . . . . . . . . . . . . . . . . . . . - ",
"D . . . . . . . . . . . . . . . . . . . ~ &.&.&.&.&.&.&.&.&.&.&.&.&.&.&.*.&.&.&.&.&.&.} X . . . . . . . . . . . . . . . . . . - ",
"A . . ; s f s f s s s s s f s s s s s s | &.&.+.! j ! #.&.&.&.&.&.+.j h ~ @.&.&.&.&.&.+.d s s d s s s d s s s s s f s s 3 . . - ",
"A . . t &.&.&.&.*.&.&.&.&.&.&.&.&.&.&.&.&.&.&.[ . . X O.&.&.&.&.&.[ . . X | &.&.&.$.&.&.&.&.&.&.&.&.&.&.&.&.&.&.&.&.&.*.h . . - ",
"D . . t &.*.&.&.&.&.&.&.&.&.&.&.&.&.&.&.&.&.&.' . . + X.&.&.&.&.*.[ X . + | &.&.&.&.&.&.&.&.&.&.&.&.&.&.&.&.&.&.&.&.*.*.g . . * ",
"R q q N [ }  .%.&.&.&.&.&.&.&.&.&.&.&.&.&.&.&.' X . + X.&.&.&.&.&.[ . . X | &.&.&.&.&.&.&.&.%.&.&.&.&.&.&.&.&.&.&.| } } B q q F ",
"      <.o X # O.&.&.&.&.&.&.&.&.&.&.&.&.&.&.*.' . . + X.&.&.&.&.*.' X . + | &.&.&.&.$.&.%.&.&.&.&.&.&.&.&.&.&.&.#.3 X o E       ",
"      3.. . @ O.&.&.&.&.&.&.&.%.&.&.&.&.$.&.&.' . . + X.&.&.&.&.&.[ X . + | &.&.&.%.&.%.&.&.&.&.&.&.&.&.&.&.&.&.#.1 . . R       ",
"      3.- * 4 ..#.@.$.&.&.%.&.&.&.&.&.&.&.&.&.' X . + X.&.&.&.&.&.[ . . + O.&.&.&.&.&.&.&.&.&.%.&.%.&.&.&.$.@.@.+.p * * -.      ",
"        u.s.6.7 ; > ) &.&.&.&.&.&.&.&.&.&.&.*.' . . + O.&.&.&.%.*.[ X . + | &.&.&.&.&.&.&.&.&.&.&.&.&.$.&.O.> ; < 2.a.u.b.      ",
"            b.5 . . ^ &.&.&.&.&.&.&.&.&.&.&.&.' . . + | &.&.&.&.&.[ . . X | &.&.&.%.&.%.&.&.&.&.&.&.&.&.&.} X . O 6.            ",
"            l.5 . . ^ &.%.&.&.&.&.&.&.&.&.&.&.' X . @ O.&.&.&.&.&.[ X . @ | &.&.&.&.&.&.%.&.&.&.&.&.&.&.&. .X . O q.            ",
"              3.<.,.K u u h &.&.&.&.&.&.&.&.&.+.( / ) #.&.&.&.&.&.@.( / ) #.&.&.&.&.%.&.&.&.&.$.&.&./ u u N ,.,.1.v.            ",
"                    I . . r %.&.&.&.&.&.&.&.&.&.&.&.*.&.&.&.&.%.&.&.&.&.&.&.&.&.&.&.&.&.&.&.&.&.&.&.s . . 9                     ",
"                    H . . r &.&.&.&.&.&.&.$.&.&.&.&.&.&.%.&.&.&.&.&.&.&.&.&.&.&.&.&.%.&.&.&.&.&.*.*.d . . 9                     ",
"                    <.I U P ^ ^ / @.&.&.&.&.&.&.&.&.&.&.&.&.&.&.&.&.&.&.&.&.&.&.&.%.&.%.&.&.%.) ^ ^ C I I :.                    ",
"                          4.. . + ..&.&.&.&.&.&.&.&.&.&.&.&.%.&.&.&.&.%.&.&.&.&.&.&.&.&.&.&.#.> . . W                           ",
"                          3.. . + O.&.&.&.&.&.&.&.&.%.&.&.&.%.&.&.%.&.&.&.%.&.&.&.&.&.&.%.&.#.1 . . W                           ",
"                          3.o . + O.&.&.&.&.&.&.&.&.&.&.&.%.&.&.&.&.&.&.&.&.&.&.$.&.&.&.&.&.#.1 . . W                           ",
"                          3.o . + O.&.&.&.&.&.&.%.&.&.%.&.&.%.&.&.&.&.%.&.&.&.&.&.&.&.&.&.&.#.1 . . E                           ",
"                          3.. . + O.&.&.&.&.%.&.&.&.&.&.&.&.&.&.%.&.&.&.%.&.&.&.&.$.&.&.&.&.#.> . . -.                          ",
"                          <.@ X ; O.&.&.&.&.&.&.&.%.&.&.&.&.&.&.&.&.&.&.&.%.&.%.&.&.&.&.&.&.$.w X X E   v.                      ",
"                    -.9 9 x  .| | $.&.&.%.&.%.&.&.&.&.&.&.&.&.&.&.&.&.&.&.&.&.&.&.&.&.&.&.&.$.O.| | n 9 9 H v.                  ",
"                    H . . w &.&.&.&.&.%.&.%.&.&.%.&.&.&.&.&.&.&.&.&.%.&.&.&.&.&.&.&.&.&.$.&.&.&.&.&.d . . 9                     ",
"                    I . . r &.&.&.&.&.&.&.&.&.&.%.%.&.&.&.&.&.&.&.&.&.&.&.&.&.%.&.$.&.&.&.&.&.&.&.&.d . . q                     ",
"                    I . . r &.&.&.&.&.&.&.&.&.&.&.&.#.j i i a i a i a i s +.&.&.&.&.&.&.&.&.&.&.&.*.g . . 9 v.                  ",
"                    I . . r &.&.&.&.&.&.&.&.&.&.&.&.@.; . . . . . . . . X X.&.&.&.&.&.&.&.&.&.&.&.&.g . . q                     ",
"                    I . . r %.&.&.&.&.&.&.&.&.*.&.&.#.; . . . . . . . . X | *.&.&.*.&.&.&.&.&.&.&.&.f . . 0                     ",
"              3.,.1.K u u j $.&.&.&.&.&.| / ( / ( / _ J H F F H F F H F G o.( / ( / / ' $.&.&.&.&.&.( u u b >.1.2.z.            ",
"            z.5 . . ^ &.&.&.&.&.&.&.&.&.a . . . . . * t.                  9 . . . . . 3 #.&.&.&.&.&.&.&.&.} o . O q.            ",
"            z.5 . . ^ &.&.&.&.&.&.&.&.&.a . . . . . $ p.                  6 . . . . . 3 &.&.&.&.&.&.&.&.&.} X . O q.            ",
"            b.5 . . ^ &.&.&.%.&.&.O.O.+.v 5 5 5 5 5 9 f.                v.D 5 5 5 5 5 l X.O.O.$.&.&.&.&.*.} X . O 6.            ",
"            z.5 . . ~ &.&.&.&.&.@.2 @ @ ;.c.z.v.b.z.                      l.c.b.z.c.  2.& + ; | &.&.&.&.&.} X . O q.            ",
"            h.5 . . ^ &.&.&.&.&.@.; . . :.                                            6.o . X  .&.&.&.&.&.} X . O 8.            ",
"            b.5 . . ~ &.%.#.%.%.+., o O :.                                            8.* O $ } &.$.%.#.%.[ X . O 6.            ",
"            z.5 . . ; 3 3 3 3 3 p 2.6.4.b.                                            b.6.8.3.z 3 3 3 3 3 > . . O q.            ",
"            z.5 . . . . . . . . * s.                                                          9 . . . . . . . . O 0.            ",
"            b.5 . . . . . . . . * e.                                                          9 . . . . . . . . o 5.            ",
"              >.-.W W :.W -.-.W :.                                                            ,.-.-.-.-.W -.-.-.-.b.            ",
"                                                                                                                                ",
"                                                                                                                                "
};
