/* XPM */
static char *_2b127de3b2142d1f8c544473537f8aejLhrYWhvGgpjULxB[] = {
/* columns rows colors chars-per-pixel */
"64 64 118 2 ",
"   c #23170C",
".  c #23190F",
"X  c #2A1A0E",
"o  c #261B11",
"O  c #291C11",
"+  c #321F12",
"@  c #2D2013",
"#  c #322115",
"$  c #3C2414",
"%  c #3A2718",
"&  c #452514",
"*  c #4B2715",
"=  c #4C2816",
"-  c #4F2B18",
";  c #532B17",
":  c #5B2F19",
">  c #5C301A",
",  c #6E391F",
"<  c #703A1F",
"1  c #473A2F",
"2  c #48392D",
"3  c #4D3C30",
"4  c #6F3A20",
"5  c #603E2C",
"6  c #713B20",
"7  c #5C4133",
"8  c #62412F",
"9  c #6B432D",
"0  c #634434",
"q  c #6D4834",
"w  c #644A3C",
"e  c #6A4A3B",
"r  c #754A33",
"t  c #734E3C",
"y  c #6F4F40",
"u  c #7C736C",
"i  c #834324",
"p  c #894727",
"a  c #8D4927",
"s  c #854728",
"d  c #874828",
"f  c #8F4928",
"g  c #924B29",
"h  c #97522E",
"j  c #98532F",
"k  c #9A5933",
"l  c #A05C35",
"z  c #B35C32",
"x  c #B95F33",
"c  c #BB6135",
"v  c #BE6A3D",
"b  c #C36636",
"n  c #C26738",
"m  c #C46E3E",
"M  c #C86D3D",
"N  c #CA703F",
"B  c #AE6D4B",
"V  c #B66D47",
"C  c #B6724E",
"Z  c #B8724E",
"A  c #B27351",
"S  c #BA7652",
"D  c #BF7F5A",
"F  c #89766E",
"G  c #82786F",
"H  c #90776D",
"J  c #887B70",
"K  c #947C71",
"L  c #C86F40",
"P  c #C87040",
"I  c #D77F4A",
"U  c #CB7F54",
"Y  c #D17F53",
"T  c #E57943",
"R  c #BE8460",
"E  c #D7804B",
"W  c #DF834D",
"Q  c #C6855F",
"!  c #D78457",
"~  c #DB875A",
"^  c #DE895C",
"/  c #E1844D",
"(  c #FE9355",
")  c #FF9556",
"_  c #FE9557",
"`  c #FF9557",
"'  c #C28662",
"]  c #DC9976",
"[  c #EEA37B",
"{  c #EFA47C",
"}  c #EFA57C",
"|  c #E9AC87",
" . c #EBAD87",
".. c #FCB58A",
"X. c #FCB890",
"o. c #CFC3B7",
"O. c #CDC2B7",
"+. c #C8C1B8",
"@. c #D2C1B5",
"#. c #D8C4B5",
"$. c #D3C6BB",
"%. c #D4C8BE",
"&. c #D6CABF",
"*. c #DCCABC",
"=. c #DACCC0",
"-. c #DACCC1",
";. c #DFCFC1",
":. c #F9EDE2",
">. c #F9EEE2",
",. c #F9EFE3",
"<. c #F9F0E5",
"1. c #FAF6EE",
"2. c #FAF7EE",
"3. c #FBF7EE",
"4. c #FBF7EF",
"5. c #FBF8EF",
"6. c #FCF8EF",
"7. c #FBF8EF",
/* pixels */
"o.Q ( ( ` ` ` ` ` ` ` ` ` _ _ _ ( ( ` ( ( _ ( ( ( ` ` ` ( X.:.1.4.-.Y ( ` ( ` ` ( ( ( ( ( ( ( ( ` ( ( ( ( ( ( ( ` ` ` ` ` ( X.:.",
"q f n v n b v v v v v v v v v v b b L v v V v L V n n V L Y ] K H t p L V n n V b M v v v V v v V v v v v v V v v v n V v v Y | ",
"; 6 g f g g g g f g f g f g f f g g g g f f f g g f f f g x n + X & 4 f g g f f g g g g g g f g f g f f g f g f f f f g f p z T ",
"; 6 g g g g g g g g g g g g g g g g g g g g g g g g g g g c b + X & 4 g g g g g g g g g g g g g g g g g g g g g g g g g g f z T ",
"; < h g g g g g g g h g g g g g h g g g g g g g g g g g g c n + O * 6 g g g g g g g g g g g g g g g g g j g g j h g g g g g z T ",
"; 6 g g g g g h g g g g g g g g g g g g g g g g g g g h g b L + o * 6 g g g g g g g g g h g g g g g g g g g g g g g g g g g z T ",
"; 6 h g h g g g g g g g g g g h g g g g g g h g g g g g g c n + O & 6 g g h g g g h g g g g g h g g g g g j g g g g g g g f x T ",
"; 6 g g g g g g g g g h g g g g g h g g g h g g g g g g g x n + o & 6 g g g g g g g g g g g g g h g g g g g g g g g g g g g z T ",
"; 6 g g h g g g h g g g h g g g g g h g g g g g g g g g g c b # O & 4 g g g h g g g h g g g g g g g g g g g h g g g g h g g x T ",
"; i j g g g g g g g g g g g g h g g g g g g g g g g h g g c n # o & 4 g g g g g g g g g g g g h g g g g g g g g g g g g g g x T ",
"; 6 g g g g g g g g g g g g g g g g g g h g g g g g g g g c n # o & 4 g g g g g g g g g g g g g g g h g g g g g h g g g g f x T ",
": 6 g g g g h g g g g h g g g g g g g h g g g h h g g g g c b # O * 6 g g g g h g g g h h g g g g j g g g g g h g g g g g g x T ",
"; 6 g g g g g g g g g g g g g g h g g g g h g g g g g g g c n # o & 4 g g g g g h g h g g g g g g g g g h g g g g g g g g g x T ",
"; 6 g g h g g g g h g g g h g g g g g g g g g g g g g g g c n # O & 4 g g g g g g g g g g g g g g g g g g g g g g g g g g g z T ",
"; 6 g g g g g g g g g g g g g g g g h g g g g g g g h g g c b # o & 4 g g g g h g g g g g g g g g g g g g g g g g g g g g g z T ",
"; i g g g g h g g g g g h g g h g g g g g g h g g g g g g c b # O & 4 g g g g g h g g g g g h g g g g z g g g h g g g g g f x T ",
"; 6 g g g g g g g g g g g g g g g g g g g g h g g g g g g c b # O & 6 g g g g g g g g g g g g g g g g g g g g g g g g g g g z T ",
"; 6 g f g g g g g f g g g g g g g g g g g g g g g g h g g c b # o & 6 g g g g f g g g g g g g f g g g g g g g g g g g g g g z T ",
"6 : 4 , , , 6 6 , , , , 6 4 4 4 6 4 4 , , , 6 6 , , , , , a d @ o $ : 4 6 4 4 , 4 4 4 4 4 4 4 4 , , 6 6 4 4 4 4 4 4 4 4 , , i V ",
"#.e & & & & & * & & & & & & & & & & & & & & & & & & & & & & @ . o O $ & & & & & & * & & & & & & & & * * & & & & & & & & & & y -.",
"6.u . O . o o o o o o o o o o O o o o o o . o . . . . @ o o o o o o o . o o o o o o o o O o O o   X O O O . O O o o O O . X F 4.",
"6.J + % $ % % % % $ % % % + o o o o @ % % % % % % % % % % % % % % % $ % % % % % % % % % % + o o X   # & % % % & % % % % % + K 1.",
"-.D I / T Y Y T / / W T ~ ' 3 o o # k W W W W W W W W W W W T W W W W W E W W I / I I / I ' 1 o . # l Y Y T Y I I / I / I T  .<.",
"t g L L L L L L V L L m M ~ S + o = h m m m m m m m m M V L m m m m m L L L L L L L L L L ~ A O X = j L L M L L L L L L L L Y  .",
"; 6 g f g g g g f g f g g x M & o & 4 g g g g g g g g f f g f g f f g g g g f f g g g g g x L O X & 6 g g g g g f g f f g f z T ",
"; 6 g g g g g g g g g g g x b + o & 4 g g g g g g g g g h g g g g g g g g g g g g g g g g c x + X * 6 g g g g g g g g h g g z T ",
": 6 g g g g g g g g g g g x L $ o & , g g g g h g g g g g g h g g g h g g g g g g g g g g x n + O & 6 g g g g g g g g g g g z T ",
"; 6 g g g g g g g g g g g c b $ o & 6 g g g g g g g g g g g g g g g g g g g g g g g g h g x n + O & 6 g g g h g g g g g g f x T ",
"; 6 g g g g g g g g g g g x b + o & 6 g g h g g g g g g g g g g h g g g g g g g g g g g g x V + O & 4 g g g g g g g g g g g z T ",
"; 6 h g g g g g g g g g g x M & O & 6 g g g g g g g g g h g h g g g g g h g g g h g g g g x b O O & 6 g g g g g h g g g g g z T ",
"; 6 g g g g g g g g g g g x L + o & < g g g g g g h g g g g g g g g g g g g g h g g g g g x x + O & 6 g h g g g g g g g g g z T ",
"; 6 g g g g g g g g g g g x M + o & , g g g g g g g g g g g g g g g h g g g g g g g g g g x L + O & 6 g g g g h g g g g g g z T ",
"; < g g g g g f g g g g f x M $ X & < g g g g g g g g g g g g g g g g g g g h g g g g g g b n O O & 6 g g g h g g g g g h g x T ",
"; < g g g g g g g f g g f x M $ . & < g g g g g g g g g g g g g h g g h g g g g g g g g g x v + O & 6 g g g g g g g g g g g z T ",
"; < g g g g g g g g g g g x b + X & < g g g g g g g g g g g g g g g g g g h g g h g g g g x b + O & 6 g g g g g g g h g g g z T ",
": < g g g g g g g g g g g x M $ . & < g g g g g g g g g g g g g g g g g g g g g g g g g g x n O O & 6 g g g g h g g g g g f z T ",
"; < g g g g g g g g g g g x M $ o & < g g g g g g g g g g g g g g g g g g g g g g g g g g x v # O & 6 g g g g g g g g g g g z T ",
"; < g g g g g f g g g g g x M + o & 6 g g g g g g g g g g g g g g g g g g g g g g g g h g x v O O & 4 g g g g g g g g g g g z T ",
": 6 g g g g g g g g f g g x m # o & 6 g g g g g g g g g g g g g g g g g g g g g g g g g g x n # O & 4 g g g g g g g g g g f z T ",
"; 6 g g g g g g g g g g g x M % o & 6 g g g g g g g g g g g g h g g g h g g g g g g g g g x n # O * 6 h g g g g g g g g g g z T ",
"4 > 6 6 6 6 6 6 6 6 6 6 6 f f # o $ > 6 6 6 6 6 < 6 6 6 6 6 6 6 6 6 6 6 6 6 6 6 6 6 6 6 6 d d O o & > 6 6 6 6 6 6 6 6 6 6 4 s A ",
"#.0 & & & & * * & & * & & * O . . O $ & * & * & & & & & * & & & * * * * & & = & & & & = & & O o o O $ & * & & * = = & & = & y -.",
"4.u   O o o O O O O o O o o o o o o o o O O o @ @ X o o @ o o o O o X X o o O O o o O O o o o o . o o o O o O O O O O o o   F 1.",
"4.F O # # + + + @ # # # # # # # # # @ # @ # @ @ # @ # @ @ @ o o . . + + # # + # # # # + # # @ @ # + # # # + # # + + + # + + H 1.",
";.Q I I Y E E E E E E E E E E E E E E E E E E E E E E E E R 7 . . + k I I I I I Y I I I I I I I Y I I E I I I I I I I I Y I | :.",
"r g L L L L L L M m M P N P M m m N M m N N P m N N N N m ~ B @ o - j L L L L L L L L L L L L L L L L L M L L L L L L L L L I  .",
"; , f a a a g f f f f f f f f f g f f f f f g f a a g a a x b # o & 4 f g f f f g g f f f g f g g f g f f f g f g f f f f f z T ",
"; < g g g g g g g f g g g g g f g g g g g f g g g g g a g c b # o & 4 g g g g g g g g g g g g g g g g g g g g g g g g g g g z T ",
"; 6 g g f g g g f g g f g g g f g g g g g g g g g g g g a c b # X & < g g g g f g g g g g g g g g g g g g g g g g g g g g g z T ",
"; < g g g g f g f g g f g f g g g a a g g a a g g a a g g c m + X & < g f f g g g g g g g g g g g g g g g g g f f g g g g f z T ",
"; < g g g f g f g g g g g g f g g g g g g g a g g g g g a c b # X & < g g g g g g f g g g g g f f g g f g g g f g f g g g f z T ",
"; < g g g f g g g f f g f g f g g g a g g g g g g a g g g c b + o & < g f g g f g g f g g g g g g g g g g f g g g g g g g a z T ",
"; < g g g g f g g g g g g g g g g g g g g g a g g a g g a c m # o & < g f g g g g g g g g f g g g g g g g f f g g g g g g f z T ",
"; < g g g g g g g g d g g f g f a g g a a g g g g g g a a c b # o & < g g g f g f g g a g f g f f g g g g g g g g g g g g f z T ",
"; 6 g g g g f f g g f g g f g g g g g g g g g g g a g g g c b # X & < g g f g f f g g g g g f g g f g f g g g f g g g f f f z T ",
"; 6 g g g g g g g f g g g g f g g g a a g g a g g g g g a c b # o & < g g f g g g g f g f g g g g g g g a g g g g f g f g a z T ",
"; < g g g g f g g g g g a g g g g g f g f g g g g g g g g c b # o & < g g g g g f g g g f g g f f g g g g g g f g g g g g f z T ",
"; < g g f g g g f g g g g g g a g g g g f g g a a g g g g c b # o & < g g g g g g g f g f g g f g g f f f f g g g g f g f g z T ",
"= < g a g g f g g d g a g g g g g g f g g g g g g g g d g c n # o & < g a g g g g f g f g g g g g f g g g g f g f f g g f f z T ",
"; < g f g g g g g g g g g a a g d g g g g d g g g g g g g c n + o & < g g g g a g f g g g f f g g g f g g f g g g g g f f a z T ",
"; < g g g g g f g g g g g a g a g g g g g f g g a g g a g c b + . & < g g g f g g g f g f g g g f g g f g g g g g g f g f f z T ",
"; < g g g g g g g g g g g g g g g g g g g g g g g g g g g c b @   & , g g g g g g g g g g g g g g g g g g g g f g g g g g g z T ",
"7 : < < , < , , < < < < < < < < < < < < , , < < < < < < < d B u u 8 : , < < , , < 6 6 , , < < < < < , < 6 6 6 6 , , 6 6 6 6 i V ",
"+.8 * - * * * * * * * * * = = = * * * * * * * * = * * * * 9 #.7.7.@.8 * * * * * = * * * * * * = = * * = * * * * * * * * * * 0 @."
};
